<svg xmlns:xlink="http://www.w3.org/1999/xlink" xmlns="http://www.w3.org/2000/svg" viewBox="0 0 32 32" width="18" height="18"><g clip-path="url(#clip0_369_269)"><path d="M0 0V32H32V0H0Z" fill="#009644"></path><path d="M22.88 20.528H20.272V19.728C20.272 19.36 20.24 19.12 20.176 19.008C20.112 18.896 20 18.848 19.84 18.848C19.664 18.848 19.536 18.912 19.456 19.056C19.376 19.2 19.328 19.408 19.328 19.68C19.328 20.048 19.376 20.32 19.472 20.496C19.568 20.672 19.824 20.896 20.272 21.168C21.536 21.92 22.304 22.528 22.64 22.992C22.976 23.472 23.136 24.24 23.136 25.296C23.136 26.064 23.04 26.64 22.864 26.992C22.688 27.36 22.336 27.664 21.808 27.92C21.28 28.176 20.688 28.288 20.016 28.288C19.264 28.288 18.624 28.144 18.096 27.856C17.568 27.568 17.216 27.2 17.04 26.768C16.864 26.336 16.784 25.696 16.784 24.896V24.192H19.392V25.52C19.392 25.92 19.424 26.192 19.504 26.304C19.584 26.416 19.712 26.48 19.904 26.48C20.096 26.48 20.224 26.4 20.32 26.256C20.416 26.112 20.464 25.888 20.464 25.6C20.464 24.96 20.384 24.544 20.208 24.352C20.032 24.16 19.584 23.824 18.88 23.36C18.176 22.896 17.712 22.56 17.504 22.352C17.28 22.144 17.088 21.856 16.944 21.472C16.8 21.088 16.72 20.624 16.72 20.064C16.72 19.232 16.832 18.64 17.04 18.256C17.248 17.872 17.6 17.568 18.064 17.36C18.528 17.152 19.104 17.04 19.76 17.04C20.496 17.04 21.12 17.152 21.616 17.392C22.128 17.632 22.48 17.92 22.64 18.288C22.8 18.656 22.896 19.264 22.896 20.112V20.544V20.512L22.88 20.528Z" fill="#B9E38D"></path><path d="M29.664 17.264V19.424H28V28.064H25.184V19.424H23.536V17.264H29.68H29.664Z" fill="#B9E38D"></path><path d="M6.496 28.4V11.616C5.488 11.536 3.568 11.328 3.184 11.2V5.872C5.392 5.728 7.056 4.64 7.952 3.6H14.768V28.384H6.496V28.4Z" fill="#FFFFFF"></path></g><defs><clipPath id="clip0_369_269"><rect width="32" height="32" fill="white"></rect></clipPath></defs></svg>